<svg width="954" height="938" viewBox="0 0 954 938" fill="none" xmlns="http://www.w3.org/2000/svg">
<path d="M446 720.089L453 937H228H1L6 713.473L1 489L221.5 491.835L453 489L446 720.089Z" fill="#00A3EE" stroke="#00A3EE"/>
<path d="M446 720.089L453 937H228H1L6 713.473L1 489L221.5 491.835L453 489L446 720.089Z" fill="#00A3EE" stroke="#00A3EE"/>
<path d="M446 232.089L453 449H228H1L6 225.473L1 1L221.5 3.83544L453 1L446 232.089Z" fill="#F14F21" stroke="#F14F21"/>
<path d="M446 232.089L453 449H228H1L6 225.473L1 1L221.5 3.83544L453 1L446 232.089Z" fill="#F14F21" stroke="#F14F21"/>
<path d="M946 232.089L953 449H728H501L506 225.473L501 1L721.5 3.83544L953 1L946 232.089Z" fill="#7EB900" stroke="#7EB900"/>
<path d="M946 232.089L953 449H728H501L506 225.473L501 1L721.5 3.83544L953 1L946 232.089Z" fill="#7EB900" stroke="#7EB900"/>
<path d="M946 720.089L953 937H728H501L506 713.473L501 489L721.5 491.835L953 489L946 720.089Z" fill="#FEB800" stroke="#FEB800"/>
<path d="M946 720.089L953 937H728H501L506 713.473L501 489L721.5 491.835L953 489L946 720.089Z" fill="#FEB800" stroke="#FEB800"/>
</svg>
